HIERARCHY
ROOT Hips
{
	OFFSET 0.000000 100.481300 0.000000
	CHANNELS 6 Xposition Yposition Zposition Xrotation Yrotation Zrotation 
	JOINT Spine
	{
		OFFSET -0.279200 12.230698 -2.892100
		CHANNELS 3 Xrotation Yrotation Zrotation
		JOINT Spine1
		{
			OFFSET -0.232667 10.192268 -1.242267
			CHANNELS 3 Xrotation Yrotation Zrotation
			JOINT Spine1_split
			{
				OFFSET -0.232667 10.192268 -1.242267
				CHANNELS 3 Xrotation Yrotation Zrotation
				JOINT Spine2
				{
					OFFSET -0.232667 10.192268 -1.242267
					CHANNELS 3 Xrotation Yrotation Zrotation
					JOINT Neck
					{
						OFFSET -0.418800 17.814194 8.416900
						CHANNELS 3 Xrotation Yrotation Zrotation
						JOINT Head
						{
							OFFSET 0.000000 7.031097 3.806800
							CHANNELS 3 Xrotation Yrotation Zrotation
							JOINT HeadTop_End
							{
								OFFSET 0.000000 24.646606 12.978600
								CHANNELS 3 Xrotation Yrotation Zrotation
								End Site
								{
									OFFSET 0.000000 0.000000 0.000000
								}
							}
						}
					}
					JOINT LeftShoulder
					{
						OFFSET 8.476499 7.247704 -3.868750
						CHANNELS 3 Xrotation Yrotation Zrotation
						JOINT LeftShoulder_split
						{
							OFFSET 8.476499 7.247704 -3.868750
							CHANNELS 3 Xrotation Yrotation Zrotation
							JOINT LeftArm
							{
								OFFSET 9.308998 -2.777710 0.208600
								CHANNELS 3 Xrotation Yrotation Zrotation
								JOINT LeftForeArm
								{
									OFFSET 29.972298 0.000000 0.000000
									CHANNELS 3 Xrotation Yrotation Zrotation
									JOINT LeftHand
									{
										OFFSET 26.026505 0.000000 0.000000
										CHANNELS 3 Xrotation Yrotation Zrotation
										JOINT LeftHandThumb1
										{
											OFFSET 12.240501 -7.147949 9.207150
											CHANNELS 3 Xrotation Yrotation Zrotation
											JOINT LeftHandThumb2
											{
												OFFSET 4.138618 -2.389435 2.389433
												CHANNELS 3 Xrotation Yrotation Zrotation
												JOINT LeftHandThumb3
												{
													OFFSET 2.726913 -1.574387 1.574386
													CHANNELS 3 Xrotation Yrotation Zrotation
													JOINT LeftHandThumb4
													{
														OFFSET 3.941010 -2.275345 2.275342
														CHANNELS 3 Xrotation Yrotation Zrotation
														End Site
														{
															OFFSET 0.000000 0.000000 0.000000
														}
													}
												}
											}
										}
										JOINT LeftHandIndex1
										{
											OFFSET 24.424698 -1.985611 5.953459
											CHANNELS 3 Xrotation Yrotation Zrotation
											JOINT LeftHandIndex2
											{
												OFFSET 6.426697 0.000000 0.000000
												CHANNELS 3 Xrotation Yrotation Zrotation
												JOINT LeftHandIndex3
												{
													OFFSET 5.337898 0.000000 0.000000
													CHANNELS 3 Xrotation Yrotation Zrotation
													JOINT LeftHandIndex4
													{
														OFFSET 4.409401 0.000000 0.000000
														CHANNELS 3 Xrotation Yrotation Zrotation
														End Site
														{
															OFFSET 0.000000 0.000000 0.000000
														}
													}
												}
											}
										}
										JOINT LeftHandMiddle1
										{
											OFFSET 23.810104 0.000000 0.000000
											CHANNELS 3 Xrotation Yrotation Zrotation
											JOINT LeftHandMiddle2
											{
												OFFSET 7.176498 0.000000 0.000000
												CHANNELS 3 Xrotation Yrotation Zrotation
												JOINT LeftHandMiddle3
												{
													OFFSET 6.774902 0.000000 0.000000
													CHANNELS 3 Xrotation Yrotation Zrotation
													JOINT LeftHandMiddle4
													{
														OFFSET 5.403328 0.000000 0.000000
														CHANNELS 3 Xrotation Yrotation Zrotation
														End Site
														{
															OFFSET 0.000000 0.000000 0.000000
														}
													}
												}
											}
										}
										JOINT LeftHandRing1
										{
											OFFSET 22.908401 -0.839279 -6.020567
											CHANNELS 3 Xrotation Yrotation Zrotation
											JOINT LeftHandRing2
											{
												OFFSET 6.337502 0.000000 0.000000
												CHANNELS 3 Xrotation Yrotation Zrotation
												JOINT LeftHandRing3
												{
													OFFSET 5.779297 0.000000 0.000000
													CHANNELS 3 Xrotation Yrotation Zrotation
													JOINT LeftHandRing4
													{
														OFFSET 4.965698 0.000000 0.000000
														CHANNELS 3 Xrotation Yrotation Zrotation
														End Site
														{
															OFFSET 0.000000 0.000000 0.000000
														}
													}
												}
											}
										}
										JOINT LeftHandPinky1
										{
											OFFSET 20.037003 -1.530319 -10.950146
											CHANNELS 3 Xrotation Yrotation Zrotation
											JOINT LeftHandPinky2
											{
												OFFSET 5.254700 0.000000 0.000000
												CHANNELS 3 Xrotation Yrotation Zrotation
												JOINT LeftHandPinky3
												{
													OFFSET 4.810204 0.000000 0.000000
													CHANNELS 3 Xrotation Yrotation Zrotation
													JOINT LeftHandPinky4
													{
														OFFSET 3.647202 0.000000 0.000000
														CHANNELS 3 Xrotation Yrotation Zrotation
														End Site
														{
															OFFSET 0.000000 0.000000 0.000000
														}
													}
												}
											}
										}
									}
								}
							}
						}
					}
					JOINT RightShoulder
					{
						OFFSET -7.570500 7.247704 -3.868750
						CHANNELS 3 Xrotation Yrotation Zrotation
						JOINT RightShoulder_split
						{
							OFFSET -7.570500 7.247704 -3.868750
							CHANNELS 3 Xrotation Yrotation Zrotation
							JOINT RightArm
							{
								OFFSET -9.308998 -2.777710 0.208500
								CHANNELS 3 Xrotation Yrotation Zrotation
								JOINT RightForeArm
								{
									OFFSET -29.972300 0.000000 0.000000
									CHANNELS 3 Xrotation Yrotation Zrotation
									JOINT RightHand
									{
										OFFSET -26.026505 0.000000 0.000000
										CHANNELS 3 Xrotation Yrotation Zrotation
										JOINT RightHandThumb1
										{
											OFFSET -12.240601 -7.148026 9.207092
											CHANNELS 3 Xrotation Yrotation Zrotation
											JOINT RightHandThumb2
											{
												OFFSET -4.138618 -2.389435 2.389433
												CHANNELS 3 Xrotation Yrotation Zrotation
												JOINT RightHandThumb3
												{
													OFFSET -2.726974 -1.574417 1.574421
													CHANNELS 3 Xrotation Yrotation Zrotation
													JOINT RightHandThumb4
													{
														OFFSET -3.941010 -2.275345 2.275343
														CHANNELS 3 Xrotation Yrotation Zrotation
														End Site
														{
															OFFSET 0.000000 0.000000 0.000000
														}
													}
												}
											}
										}
										JOINT RightHandIndex1
										{
											OFFSET -24.424698 -1.985657 5.953444
											CHANNELS 3 Xrotation Yrotation Zrotation
											JOINT RightHandIndex2
											{
												OFFSET -6.426697 0.000000 0.000000
												CHANNELS 3 Xrotation Yrotation Zrotation
												JOINT RightHandIndex3
												{
													OFFSET -5.337898 0.000000 0.000000
													CHANNELS 3 Xrotation Yrotation Zrotation
													JOINT RightHandIndex4
													{
														OFFSET -4.409401 0.000000 0.000000
														CHANNELS 3 Xrotation Yrotation Zrotation
														End Site
														{
															OFFSET 0.000000 0.000000 0.000000
														}
													}
												}
											}
										}
										JOINT RightHandMiddle1
										{
											OFFSET -23.810097 0.000000 0.000000
											CHANNELS 3 Xrotation Yrotation Zrotation
											JOINT RightHandMiddle2
											{
												OFFSET -7.176498 0.000000 0.000000
												CHANNELS 3 Xrotation Yrotation Zrotation
												JOINT RightHandMiddle3
												{
													OFFSET -6.774902 0.000000 0.000000
													CHANNELS 3 Xrotation Yrotation Zrotation
													JOINT RightHandMiddle4
													{
														OFFSET -5.403328 0.000000 0.000000
														CHANNELS 3 Xrotation Yrotation Zrotation
														End Site
														{
															OFFSET 0.000000 0.000000 0.000000
														}
													}
												}
											}
										}
										JOINT RightHandRing1
										{
											OFFSET -22.908302 -0.839325 -6.020576
											CHANNELS 3 Xrotation Yrotation Zrotation
											JOINT RightHandRing2
											{
												OFFSET -6.337502 0.000000 0.000000
												CHANNELS 3 Xrotation Yrotation Zrotation
												JOINT RightHandRing3
												{
													OFFSET -5.779297 0.000000 0.000000
													CHANNELS 3 Xrotation Yrotation Zrotation
													JOINT RightHandRing4
													{
														OFFSET -4.965698 0.000000 0.000000
														CHANNELS 3 Xrotation Yrotation Zrotation
														End Site
														{
															OFFSET 0.000000 0.000000 0.000000
														}
													}
												}
											}
										}
										JOINT RightHandPinky1
										{
											OFFSET -20.037003 -1.530334 -10.950259
											CHANNELS 3 Xrotation Yrotation Zrotation
											JOINT RightHandPinky2
											{
												OFFSET -5.254700 0.000000 0.000000
												CHANNELS 3 Xrotation Yrotation Zrotation
												JOINT RightHandPinky3
												{
													OFFSET -4.810204 0.000000 0.000000
													CHANNELS 3 Xrotation Yrotation Zrotation
													JOINT RightHandPinky4
													{
														OFFSET -3.647202 0.000000 0.000000
														CHANNELS 3 Xrotation Yrotation Zrotation
														End Site
														{
															OFFSET 0.000000 0.000000 0.000000
														}
													}
												}
											}
										}
									}
								}
							}
						}
					}
				}
			}
		}
	}
	JOINT LeftUpLeg
	{
		OFFSET 15.427100 -6.655098 0.678600
		CHANNELS 3 Xrotation Yrotation Zrotation
		JOINT LeftLeg
		{
			OFFSET 4.081073 -39.591068 13.024000
			CHANNELS 3 Xrotation Yrotation Zrotation
			JOINT LeftFoot
			{
				OFFSET -4.081074 -37.707932 -15.979700
				CHANNELS 3 Xrotation Yrotation Zrotation
				JOINT LeftToeBase
				{
					OFFSET 5.346399 -15.068900 20.645000
					CHANNELS 3 Xrotation Yrotation Zrotation
					JOINT LeftToe_End
					{
						OFFSET 2.754700 0.931300 11.300900
						CHANNELS 3 Xrotation Yrotation Zrotation
						End Site
						{
							OFFSET 0.000000 0.000000 0.000000
						}
					}
				}
			}
		}
	}
	JOINT RightUpLeg
	{
		OFFSET -15.569500 -6.655098 0.678600
		CHANNELS 3 Xrotation Yrotation Zrotation
		JOINT RightLeg
		{
			OFFSET -4.081825 -39.591045 13.023800
			CHANNELS 3 Xrotation Yrotation Zrotation
			JOINT RightFoot
			{
				OFFSET 4.081824 -37.707954 -15.979600
				CHANNELS 3 Xrotation Yrotation Zrotation
				JOINT RightToeBase
				{
					OFFSET -5.346400 -15.068900 20.645000
					CHANNELS 3 Xrotation Yrotation Zrotation
					JOINT RightToe_End
					{
						OFFSET -2.754700 0.931300 11.300900
						CHANNELS 3 Xrotation Yrotation Zrotation
						End Site
						{
							OFFSET 0.000000 0.000000 0.000000
						}
					}
				}
			}
		}
	}
}
MOTION
Frames: 5
Frame Time: 0.016667
0.288774 78.878304 -0.156881 3.037454 -58.355046 6.232835 11.190428 0.276965 -2.458389 8.434584 0.027688 -5.592316 0.000000 0.000000 0.000000 8.457039 0.027890 -5.591868 -21.555841 25.063367 12.062737 -0.293896 25.465773 -3.209027 -0.000000 0.000000 -0.000001 -6.221634 -11.503767 -4.023776 0.000000 0.000000 0.000000 -23.062207 9.568413 -36.639641 0.046085 -43.168920 -0.011184 22.743789 -5.686030 15.979368 -1.064244 -7.954947 8.490081 2.373392 19.986144 -2.038322 0.808206 1.237762 2.631754 -0.000001 -0.000000 0.000001 13.340873 -1.006687 10.682285 -0.167586 0.303387 -31.105662 -0.143372 0.303618 -32.256241 0.000001 0.000000 -0.000002 8.495433 -0.329570 -0.915330 0.231491 0.661177 -29.901851 0.444135 0.213481 -44.357031 -0.000001 -0.000001 0.000000 6.111740 3.150948 -16.210931 0.047046 0.322398 -30.125495 0.408822 0.818957 -42.140655 0.000002 -0.000000 -0.000000 -5.636032 7.709849 -13.878634 0.224368 0.276574 -46.588355 0.261286 0.249381 -46.286853 -0.000002 -0.000000 -0.000001 -5.488218 10.658255 2.466463 0.000000 0.000000 0.000000 -41.473906 -26.755586 30.079040 24.955643 111.862864 -23.308690 -8.702500 12.423121 -9.801860 0.264992 10.061126 -10.888480 1.383781 -17.412874 3.016256 3.342360 -13.253723 -8.262774 -0.000002 -0.000000 0.000000 19.443617 11.174434 -13.340214 -0.118646 -0.322718 18.035562 -0.089915 -0.286591 23.256603 0.000000 0.000001 0.000001 4.320492 2.436975 -4.811724 0.349138 -0.461246 26.890323 0.467487 0.154071 39.044852 0.000001 -0.000001 -0.000001 -7.005640 -10.695128 5.719839 0.111886 -0.089169 26.155878 0.451303 -0.473587 33.265046 0.000001 -0.000000 -0.000001 -19.433555 -20.238195 5.987861 0.223780 -0.085808 36.844571 0.260782 -0.047510 36.471684 -0.000001 0.000000 -0.000000 -34.680231 8.733573 27.676992 40.313740 -8.737427 -10.518995 -7.470532 -1.705596 -10.812295 -0.367826 1.237918 0.746164 -0.000000 -0.000001 -0.000000 -31.022507 -7.193403 -29.202136 46.885717 5.280626 -6.185225 -19.296369 0.939592 23.039358 -0.365134 -0.996895 -0.741126 0.000000 -0.000001 -0.000000 
0.256462 78.913467 0.025578 2.518783 -58.332834 5.441336 11.158384 0.245817 -2.506212 8.343009 -0.023349 -5.688294 0.000000 0.000000 0.000000 8.371677 0.015594 -5.630538 -20.102603 24.801809 13.023839 -0.857427 25.691087 -3.215340 0.000000 -0.000000 0.000000 -6.221598 -11.502580 -4.090421 0.000000 0.000000 0.000000 -23.051557 9.454026 -36.707400 0.206706 -43.116372 0.092964 22.538453 -5.934218 15.432481 -0.983734 -7.447170 8.678389 2.534421 20.452361 -1.857949 0.923808 1.716429 2.859945 -0.000001 -0.000000 0.000004 13.342562 -1.008438 10.138454 -0.166793 0.303599 -31.649614 -0.141260 0.302910 -32.800259 -0.000000 0.000001 0.000000 8.486654 -0.324254 -1.459189 0.234613 0.662886 -30.445773 0.447175 0.214582 -44.900998 -0.000002 -0.000001 -0.000001 6.111055 3.157142 -16.754618 0.047440 0.326143 -30.669387 0.413880 0.818580 -42.684622 0.000001 0.000000 0.000001 -5.627387 7.708062 -14.423266 0.226474 0.278323 -47.132342 0.263828 0.250627 -46.830878 -0.000001 0.000001 -0.000001 -5.459882 9.874460 2.586598 0.000000 0.000000 0.000000 -40.532535 -25.915522 31.217373 24.790602 110.210792 -23.382714 -8.889546 12.458765 -8.493632 0.272596 9.991996 -10.913338 1.407695 -17.475138 2.991975 3.353962 -13.319395 -8.290906 -0.000000 -0.000001 0.000000 19.443708 11.174499 -13.267062 -0.118584 -0.322790 18.108988 -0.089646 -0.286567 23.330000 -0.000000 0.000001 0.000001 4.319297 2.436259 -4.738290 0.349507 -0.461510 26.963710 0.467872 0.153872 39.118259 0.000001 -0.000000 0.000000 -7.006196 -10.695757 5.792798 0.111863 -0.089683 26.229282 0.452017 -0.473676 33.338468 -0.000004 -0.000002 -0.000000 -19.433749 -20.238486 6.060293 0.224069 -0.086058 36.918019 0.261098 -0.047680 36.545071 -0.000001 0.000002 -0.000000 -34.269737 8.215104 27.838164 40.550813 -8.530521 -10.548124 -7.772517 -1.653705 -10.895153 -0.366237 1.238046 0.749752 -0.000000 0.000003 0.000000 -30.536813 -7.671968 -29.032856 46.560115 5.477622 -6.154341 -19.255212 0.952806 23.007156 -0.363385 -0.996852 -0.745106 0.000000 -0.000001 -0.000000 
0.093264 78.924889 0.207204 1.943257 -58.304544 4.588785 11.071045 0.211529 -2.560828 8.093935 -0.081182 -5.786256 0.000000 0.000000 0.000000 8.133086 -0.021283 -5.670396 -18.473604 24.513732 14.037475 -1.509211 25.960384 -3.156107 0.000000 0.000001 -0.000000 -6.237336 -11.503388 -4.274837 0.000000 0.000000 0.000000 -23.016759 9.112616 -36.903632 0.376348 -42.965814 0.192079 22.289810 -6.181507 14.845756 -0.897576 -6.894435 8.882408 2.708426 20.960145 -1.662700 1.047412 2.237645 3.107422 -0.000000 0.000001 -0.000001 13.344388 -1.010272 9.546769 -0.165974 0.306030 -32.241437 -0.138974 0.302184 -33.392139 0.000002 -0.000001 0.000001 8.477203 -0.316687 -2.050860 0.237945 0.664724 -31.037664 0.450533 0.215739 -45.492854 0.000000 -0.000001 -0.000001 6.110052 3.163961 -17.346121 0.047835 0.330112 -31.261223 0.419363 0.818121 -43.276454 0.000002 0.000000 0.000001 -5.619446 7.706698 -15.015758 0.228778 0.280207 -47.724113 0.266609 0.251896 -47.422751 0.000000 0.000001 0.000001 -5.454995 9.092291 2.875205 0.000000 0.000000 0.000000 -39.552037 -24.929118 32.615260 32.279221 109.755218 -30.680042 -5.944210 12.171656 -6.772570 0.293736 9.798395 -10.982916 1.474604 -17.649523 2.924094 3.380593 -13.503579 -8.372150 -0.000000 0.000001 -0.000001 19.444031 11.174655 -13.062133 -0.118462 -0.322970 18.314512 -0.088880 -0.286543 23.535517 0.000001 0.000001 -0.000000 4.315997 2.434215 -4.532569 0.350634 -0.462232 27.169214 0.469025 0.153324 39.323732 0.000002 -0.000001 -0.000001 -7.007859 -10.697463 5.997235 0.111868 -0.091073 26.434811 0.454036 -0.473809 33.543926 0.000005 -0.000001 -0.000002 -19.434391 -20.239258 6.263175 0.224725 -0.086868 37.123530 0.261950 -0.048274 36.750605 -0.000001 0.000000 -0.000001 -33.856428 7.889108 28.144392 40.770874 -8.552585 -10.587771 -8.120863 -1.617045 -10.938740 -0.364008 1.237962 0.754850 0.000000 -0.000001 -0.000000 -29.901066 -8.144504 -28.801241 46.307081 5.605496 -6.131252 -19.377696 0.938221 22.986148 -0.361655 -0.996859 -0.748967 0.000000 -0.000001 -0.000000 
-0.135544 78.956894 0.386588 1.345987 -58.270400 3.713760 10.940773 0.175661 -2.618674 7.716270 -0.138327 -5.878630 0.000000 0.000000 0.000000 7.767791 -0.077112 -5.711212 -16.813192 24.183092 14.998419 -2.116840 26.147940 -2.929927 0.000000 -0.000000 0.000000 -6.272278 -11.473003 -4.554318 0.000000 0.000000 0.000000 -22.962493 8.580377 -37.210263 0.522206 -42.740448 0.264836 22.035027 -6.411165 14.252130 -0.807495 -6.305771 9.098585 2.892305 21.501292 -1.455671 1.176690 2.793019 3.369837 -0.000000 0.000000 0.000001 13.346304 -1.012336 8.916808 -0.165074 0.308702 -32.871549 -0.136513 0.301307 -34.022204 -0.000001 0.000001 0.000000 8.471095 -0.308415 -2.680888 0.241579 0.666629 -31.667803 0.454141 0.214405 -46.123007 0.000000 0.000000 -0.000001 6.108669 3.171298 -17.975939 0.048349 0.334418 -31.891311 0.425208 0.817606 -43.906546 -0.000000 0.000000 0.000002 -5.612717 7.705887 -15.646331 0.231245 0.282250 -48.354239 0.269669 0.253258 -48.052836 -0.000002 0.000001 -0.000004 -5.464609 8.274679 3.337418 0.000000 0.000000 0.000000 -38.620062 -23.706173 34.142859 37.232720 108.739207 -35.689774 -3.949284 11.691915 -4.741114 0.325841 9.501101 -11.089662 1.574346 -17.916672 2.815866 3.421033 -13.786477 -8.496988 -0.000003 0.000001 -0.000001 19.444449 11.174878 -12.747405 -0.118169 -0.323184 18.630198 -0.087746 -0.286418 23.851159 -0.000000 -0.000000 -0.000000 4.310946 2.431065 -4.216698 0.352358 -0.463352 27.484862 0.470791 0.152463 39.639331 -0.000004 -0.000001 0.000002 -7.005743 -10.700405 6.312118 0.111845 -0.093226 26.750441 0.457078 -0.474071 33.859515 -0.000002 -0.000001 0.000001 -19.434444 -20.236042 6.577729 0.225760 -0.088099 37.439115 0.263305 -0.049206 37.066289 0.000002 0.000001 0.000001 -33.428585 7.712773 28.512215 40.916586 -8.704092 -10.619774 -8.458919 -1.592317 -10.949150 -0.361511 1.238119 0.760393 -0.000000 0.000001 -0.000000 -29.159334 -8.620354 -28.520995 46.026934 5.692849 -6.107893 -19.552629 0.910147 22.964291 -0.360030 -0.996761 -0.752690 0.000000 0.000001 -0.000000 
-0.365386 78.974846 0.562768 0.761904 -58.232055 2.853784 10.776976 0.141074 -2.673708 7.238973 -0.187260 -5.957854 0.000000 0.000000 0.000000 7.302202 -0.146036 -5.752770 -15.262423 23.781296 15.793668 -2.545714 26.126746 -2.432409 -0.000000 0.000001 -0.000000 -6.328932 -11.385485 -4.905911 0.000000 0.000000 0.000000 -22.894424 7.888644 -37.610266 0.611307 -42.459905 0.290289 21.812163 -6.609626 13.684919 -0.715010 -5.690044 9.323642 3.083098 22.067598 -1.240373 1.309233 3.374356 3.643147 -0.000002 -0.000000 0.000001 13.348297 -1.014501 8.258115 -0.164180 0.311396 -33.530433 -0.133968 0.303576 -34.681023 -0.000001 0.000001 -0.000000 8.464848 -0.299675 -3.339659 0.245391 0.668620 -32.326664 0.457877 0.212898 -46.781793 -0.000000 0.000000 -0.000000 6.106934 3.179082 -18.634447 0.050764 0.338873 -32.550117 0.427459 0.816974 -44.565417 0.000002 0.000000 -0.000000 -5.607504 7.705910 -16.305576 0.233861 0.284250 -49.013000 0.272797 0.254651 -48.711622 0.000001 -0.000002 -0.000002 -5.464588 7.537296 3.772438 0.000000 0.000000 0.000000 -37.732519 -22.484991 35.680621 34.387414 105.821029 -33.312735 -4.938331 11.156013 -2.544891 0.366377 9.120913 -11.226030 1.697829 -18.260854 2.678652 3.471924 -14.148412 -8.656659 -0.000000 0.000000 -0.000001 19.445000 11.175206 -12.344622 -0.117818 -0.323517 19.033847 -0.086268 -0.286286 24.254926 0.000000 0.000002 0.000001 4.304469 2.427026 -3.812706 0.354549 -0.464345 27.888584 0.473110 0.151339 40.043002 -0.000001 0.000001 0.000000 -7.003706 -10.704162 6.714989 0.111901 -0.095898 27.154192 0.456028 -0.474410 34.263108 0.000001 0.000000 -0.000000 -19.434682 -20.232849 6.980310 0.227015 -0.089225 37.842875 0.265057 -0.050407 37.469902 -0.000002 0.000002 0.000002 -33.051238 7.599627 28.908619 41.069784 -8.921069 -10.657793 -8.786935 -1.575524 -10.924957 -0.358838 1.237981 0.766514 -0.000000 0.000002 -0.000000 -28.419958 -9.060097 -28.232199 45.770511 5.760593 -6.086278 -19.738584 0.875182 22.955685 -0.358514 -0.996904 -0.756118 -0.000000 -0.000000 0.000000 
